# xmcd
#
# Track frame offsets:
#	150
#	15481
#	32313
#	45826
#	66139
#	86631
#	101808
#	121101
#	133292
#	148540
#	167330
#	181631
#	197086
#	213817
#	229653
#	244779
#	261611
#
# Disc length: 3648 seconds
#
# Revision: 1
# Processed by: cddbd v1.5.1PL2 Copyright (c) Steve Scherf et al.
# Submitted via: audiograbber 1.83.01
#
DISCID=db0e3e11
DTITLE=Various Artist - TT-272
DYEAR=1900
DGENRE=Country
TTITLE0=Martina McBride - I Never Promised You A Rose Garden
TTITLE1=Gretchen Wilson - All Jacked Up
TTITLE2=Toby Keith - Big Blue Note
TTITLE3=Dierks Bentley - Come A Little Closer
TTITLE4=Faith Hill - Fireflies
TTITLE5=Phil Vassar - Good Ole Days
TTITLE6=Faith Hill - Like We Never Loved At All
TTITLE7=Blake Shelton - Nobody But Me
TTITLE8=Brooks and Dunn - Play Something Country
TTITLE9=Josh Gracin - Stay With Me
TTITLE10=Joe Nichols - Tequila Makes Her Clothes Fall Off
TTITLE11=Alan Jackson - USA Today
TTITLE12=Keith Anderson - XXL
TTITLE13=Josh Turner - Your Man
TTITLE14=Lonestar - You're Like Comin' Home
TTITLE15=Gretchen Wilson - All Jacked Up - Vocal
TTITLE16=Blake Shelton - Nobody But Me - Vocal
EXTD=
EXTT0=
EXTT1=
EXTT2=
EXTT3=
EXTT4=
EXTT5=
EXTT6=
EXTT7=
EXTT8=
EXTT9=
EXTT10=
EXTT11=
EXTT12=
EXTT13=
EXTT14=
EXTT15=
EXTT16=
PLAYORDER=
